# xmcd
#
# Track frame offsets:
#	225
#	14219
#	33423
#	44405
#	61340
#	75680
#	93143
#	105355
#	121967
#	140437
#	152457
#	168078
#	195248
#
# Disc length: 4440 seconds
#
# Revision: 0
# Processed by: cddbd v1.5.1PL0 Copyright (c) Steve Scherf et al.
# Submitted via: dBpowerAMP V4.0
#
DISCID=9911550d
DTITLE=Maria Bethânia - Brasileirinho
DYEAR=1900
DGENRE=
TTITLE0=salve as folhas
TTITLE1=yáyá massemba
TTITLE2=capitão do mato
TTITLE3=cabocla jurema... ponto de janaína (1)
TTITLE4=santo antónio
TTITLE5=padroeiro do brasil
TTITLE6=são joão xangô menino... ponta de macumba
TTITLE7=cigarro de paia.... boiadeiro
TTITLE8=sussuarama
TTITLE9=senhor da floresta
TTITLE10=purificar o subaé...cantiga para janaína (2)
TTITLE11=melodia sentimental
TTITLE12=DATA
EXTD=Brasileirinho\nVitor
EXTT0=
EXTT1=
EXTT2=
EXTT3=
EXTT4=
EXTT5=
EXTT6=
EXTT7=
EXTT8=
EXTT9=
EXTT10=
EXTT11=
EXTT12=
PLAYORDER=
